Coordinates
version=1
nRows=32
nColumns=22
inDegrees=yes

Units are S.I. units (second, meters, Newtons, ...)
If the header above contains a line with 'inDegrees', this indicates whether rotational values are in degrees (yes) or radians (no).

endheader
time	pelvis_tilt	pelvis_list	pelvis_rotation	pelvis_tx	pelvis_ty	pelvis_tz	hip_flexion_r	hip_adduction_r	hip_rotation_r	knee_angle_r	ankle_angle_r	subtalar_angle_r	hip_flexion_l	hip_adduction_l	hip_rotation_l	knee_angle_l	ankle_angle_l	subtalar_angle_l	lumbar_extension	lumbar_bending	lumbar_rotation
      0.01000000	     -2.09075291	     -2.47785025	      3.57143289	     -0.99037659	      0.93982221	     -0.73405783	      6.31195407	      1.17276320	    -11.76207627	    -15.60071821	     11.49526132	      0.58550024	      7.95572649	     -4.89726428	     -7.15493212	    -19.00597447	     12.83262586	      0.63963979	     -8.30752783	     -0.71269888	     -7.18543375
      0.02000000	     -1.77266223	     -2.29640315	      3.44475567	     -0.98934628	      0.94039191	     -0.73425860	      5.86136012	      1.00837765	    -11.52701961	    -15.53569809	     11.60566185	      0.52250805	      7.37079484	     -4.69661776	     -7.32664825	    -18.75486976	     12.74440978	      0.52934469	     -8.56607217	     -0.90543960	     -7.04453103
      0.03000000	     -1.40674919	     -2.08159263	      3.27178605	     -0.98810476	      0.94106519	     -0.73443652	      5.33161024	      0.81216292	    -11.25406183	    -15.44087341	     11.71026489	      0.53184632	      6.67542190	     -4.45755121	     -7.53752371	    -18.43759931	     12.63962582	      0.49651606	     -8.85104126	     -1.14298182	     -6.86132343
      0.04000000	     -1.02978138	     -1.86786932	      3.08899756	     -0.98679106	      0.94176835	     -0.73463957	      4.77025532	      0.61394961	    -10.97930244	    -15.31468413	     11.79803072	      0.55184657	      5.95430592	     -4.21108591	     -7.74138155	    -18.10220650	     12.53743253	      0.47349933	     -9.13644715	     -1.37691742	     -6.65542778
      0.05000000	     -0.69291382	     -1.68607926	      2.91250057	     -0.98553556	      0.94239757	     -0.73480389	      4.25038326	      0.44629219	    -10.74155004	    -15.17267439	     11.87081295	      0.57353655	      5.30831124	     -3.99903287	     -7.93316200	    -17.80799157	     12.43372938	      0.45312371	     -9.37449145	     -1.58684615	     -6.46304646
      0.06000000	     -0.44955565	     -1.55007340	      2.75755817	     -0.98448414	      0.94285741	     -0.73495479	      3.85473540	      0.31782362	    -10.53605916	    -15.04620487	     11.93289878	      0.59166150	      4.82854654	     -3.83239419	     -8.06790706	    -17.59587251	     12.35342406	      0.43770108	     -9.52448744	     -1.75091864	     -6.25937579
      0.07000000	     -0.26107524	     -1.48308884	      2.66410228	     -0.98360838	      0.94321529	     -0.73511579	      3.50097220	      0.26321106	    -10.41423123	    -14.86602128	     11.93508370	      0.60641149	      4.48153392	     -3.74503351	     -8.14613294	    -17.47063274	     12.32170375	      0.42785567	     -9.62809831	     -1.83712608	     -6.14779383
      0.08000000	     -0.20117341	     -1.47262166	      2.60555692	     -0.98296571	      0.94335116	     -0.73523992	      3.30550135	      0.26439160	    -10.33845407	    -14.69167104	     11.93034498	      0.61702845	      4.35358471	     -3.72257517	     -8.17587877	    -17.44949221	     12.32161497	      0.42294665	     -9.60426397	     -1.86840945	     -6.08666799
      0.09000000	     -0.16998402	     -1.50838187	      2.55601305	     -0.98247307	      0.94343752	     -0.73530350	      3.15904055	      0.30988844	    -10.35426998	    -14.52911948	     11.88878965	      0.62348400	      4.29789685	     -3.75930105	     -8.19967833	    -17.48117685	     12.32547880	      0.41760432	     -9.56873547	     -1.85377733	     -5.99307788
      0.10000000	     -0.18795154	     -1.56489358	      2.51093116	     -0.98211176	      0.94345295	     -0.73531086	      3.06776211	      0.37869572	    -10.38753445	    -14.35305442	     11.84084647	      0.63019492	      4.32201313	     -3.82093982	     -8.20256448	    -17.54271136	     12.34682528	      0.41593349	     -9.49249302	     -1.82363926	     -5.91945217
      0.11000000	     -0.24220717	     -1.66147898	      2.46537030	     -0.98183352	      0.94341780	     -0.73525340	      3.01554319	      0.49281112	    -10.44988512	    -14.16122999	     11.75824315	      0.63661395	      4.40876787	     -3.93408162	     -8.21600141	    -17.63554374	     12.38177829	      0.41641554	     -9.38281029	     -1.75345152	     -5.84549370
      0.12000000	     -0.33620442	     -1.78182444	      2.41657458	     -0.98163585	      0.94332772	     -0.73514316	      3.00966415	      0.63315266	    -10.53287563	    -13.96197978	     11.65063390	      0.64326593	      4.55643711	     -4.07793247	     -8.23453926	    -17.75195164	     12.43466745	      0.42311551	     -9.23862447	     -1.66183743	     -5.77079416
      0.13000000	     -0.47243694	     -1.90348641	      2.36437485	     -0.98151479	      0.94317327	     -0.73499661	      3.05710533	      0.77417048	    -10.62444191	    -13.76733532	     11.52824431	      0.65077920	      4.77129013	     -4.22593462	     -8.25046574	    -17.90199216	     12.51272320	      0.44328410	     -9.05578726	     -1.57587982	     -5.68428087
      0.14000000	     -0.60052379	     -2.03812183	      2.29954818	     -0.98135584	      0.94305199	     -0.73482100	      3.09406441	      0.93018845	    -10.73805752	    -13.57153680	     11.42928294	      0.65365310	      4.93757068	     -4.38825139	     -8.29828561	    -17.98210101	     12.53200894	      0.45364490	     -8.87900406	     -1.47324852	     -5.60256713
      0.15000000	     -0.76940159	     -2.16033486	      2.23704695	     -0.98124923	      0.94285814	     -0.73463745	      3.17441251	      1.07388259	    -10.83112983	    -13.36924590	     11.29768611	      0.65438556	      5.17683589	     -4.53903798	     -8.33548796	    -18.11421488	     12.61433308	      0.48773741	     -8.66013742	     -1.38993693	     -5.50953605
      0.16000000	     -0.90188848	     -2.28161501	      2.16616639	     -0.98107525	      0.94274085	     -0.73445569	      3.21562827	      1.21766085	    -10.93274162	    -13.17599279	     11.19698223	      0.65061442	      5.32455294	     -4.68591193	     -8.39696832	    -18.15576567	     12.61827881	      0.50184589	     -8.47704615	     -1.30175772	     -5.42770302
      0.17000000	     -1.06029279	     -2.37884698	      2.10469697	     -0.98093497	      0.94256882	     -0.73431532	      3.28352846	      1.33522690	    -11.00316715	    -12.97865500	     11.08322895	      0.64193485	      5.52150442	     -4.80433093	     -8.44675598	    -18.23606996	     12.68038842	      0.53702774	     -8.26992768	     -1.24110027	     -5.33980051
      0.18000000	     -1.17962657	     -2.46249713	      2.04350099	     -0.98070941	      0.94247003	     -0.73421558	      3.30787754	      1.43826629	    -11.06131568	    -12.79290994	     10.99904780	      0.63232605	      5.62513972	     -4.90088147	     -8.50395774	    -18.22970936	     12.67490901	      0.54977468	     -8.09793201	     -1.18601378	     -5.27722826
      0.19000000	     -1.29692918	     -2.51666957	      1.99147608	     -0.98048313	      0.94235865	     -0.73417684	      3.33338253	      1.50689334	    -11.09065175	    -12.61869451	     10.92130623	      0.61799319	      5.73405965	     -4.96192891	     -8.55600559	    -18.23939207	     12.70371340	      0.57166366	     -7.93036473	     -1.16007334	     -5.20848196
      0.20000000	     -1.36110030	     -2.53004132	      1.95668162	     -0.98015171	      0.94232483	     -0.73423114	      3.30456220	      1.52467032	    -11.14694569	    -12.47313320	     10.92118157	      0.61678392	      5.74010403	     -4.96785942	     -8.60134264	    -18.17480244	     12.70441248	      0.57234198	     -7.81327805	     -1.17038613	     -5.17343699
      0.21000000	     -1.44320472	     -2.54473029	      1.91337536	     -0.97982705	      0.94227055	     -0.73429869	      3.28765601	      1.55302344	    -11.06749293	    -12.30861265	     10.84843658	      0.60345376	      5.76157177	     -4.97173778	     -8.64201362	    -18.10457567	     12.68823711	      0.57068606	     -7.67624149	     -1.17515490	     -5.14244160
      0.22000000	     -1.49505299	     -2.52875104	      1.88483126	     -0.97943891	      0.94224611	     -0.73445010	      3.24803050	      1.54085752	    -11.00000337	    -12.17919778	     10.82755071	      0.59359072	      5.73626065	     -4.93723937	     -8.69087477	    -18.01548496	     12.68237171	      0.56297367	     -7.56619662	     -1.20600055	     -5.12019431
      0.23000000	     -1.52563156	     -2.48789693	      1.86233813	     -0.97901792	      0.94225071	     -0.73466119	      3.18568549	      1.50030609	    -10.89238454	    -12.05692127	     10.82447070	      0.58507663	      5.67046743	     -4.86825623	     -8.72805733	    -17.89770625	     12.66458984	      0.54473328	     -7.47830254	     -1.25816510	     -5.11043470
      0.24000000	     -1.52960943	     -2.42505891	      1.84786659	     -0.97857114	      0.94229237	     -0.73492921	      3.09729365	      1.43426137	    -10.75455750	    -11.94637613	     10.83786014	      0.57747251	      5.56189603	     -4.76905561	     -8.75631623	    -17.75565081	     12.63463352	      0.51517996	     -7.42065045	     -1.32730453	     -5.10879544
      0.25000000	     -1.46815601	     -2.34885248	      1.83738891	     -0.97805883	      0.94243434	     -0.73523508	      2.93663800	      1.35234756	    -10.63076570	    -11.84237197	     10.86895960	      0.56535588	      5.35641766	     -4.65479377	     -8.81313685	    -17.57223289	     12.58418482	      0.45247269	     -7.43444418	     -1.40507269	     -5.10844185
      0.26000000	     -1.43674546	     -2.27207719	      1.85108940	     -0.97759764	      0.94251569	     -0.73559035	      2.82034861	      1.26710646	    -10.48601467	    -11.75832957	     10.89867897	      0.56268729	      5.20477940	     -4.53357590	     -8.81530613	    -17.41348552	     12.54689582	      0.41442518	     -7.41868938	     -1.47811147	     -5.14538505
      0.27000000	     -1.41831003	     -2.19748294	      1.87161711	     -0.97717531	      0.94257006	     -0.73596552	      2.73506476	      1.18035290	    -10.34194849	    -11.70240477	     10.93426243	      0.56115496	      5.07478726	     -4.41166475	     -8.79333868	    -17.26098860	     12.50431827	      0.38997102	     -7.39231763	     -1.54443035	     -5.19085285
      0.28000000	     -1.39063971	     -2.12518533	      1.90239474	     -0.97678448	      0.94263025	     -0.73633560	      2.64972867	      1.09521830	    -10.22082760	    -11.66224116	     10.97338921	      0.55851904	      4.94746836	     -4.29571057	     -8.77214118	    -17.12432282	     12.46771663	      0.36747173	     -7.38275917	     -1.60998712	     -5.24458663
      0.29000000	     -1.38539734	     -2.06661193	      1.93927662	     -0.97645568	      0.94264352	     -0.73669772	      2.59957695	      1.02199274	    -10.12471409	    -11.63252642	     10.99878395	      0.55766812	      4.87654825	     -4.19878320	     -8.74417684	    -17.03875789	     12.46001452	      0.35940437	     -7.35400233	     -1.65769718	     -5.30579250
      0.30000000	     -1.37421914	     -2.01587737	      1.96790368	     -0.97616515	      0.94267051	     -0.73700537	      2.57065338	      0.95407440	    -10.06910274	    -11.64843443	     11.03162625	      0.55529830	      4.79152769	     -4.11315303	     -8.71921988	    -16.93399220	     12.42931802	      0.34752270	     -7.33921358	     -1.69948069	     -5.36449146
      0.31000000	     -1.37458934	     -2.01025573	      1.99406678	     -0.97595035	      0.94267131	     -0.73724702	      2.57585138	      0.93491085	    -10.05002028	    -11.68912751	     11.03777548	      0.55412173	      4.75261762	     -4.09017020	     -8.72876999	    -16.88141553	     12.42612481	      0.34496156	     -7.32059780	     -1.69216122	     -5.42075745
      0.32000000	     -1.37677194	     -1.97324724	      2.01809352	     -0.97576085	      0.94267656	     -0.73745661	      2.60086733	      0.87466289	    -10.09616212	    -11.76252318	     11.07571525	      0.55471399	      4.70384944	     -4.02637960	     -8.68239358	    -16.80514397	     12.39824766	      0.33779585	     -7.30336493	     -1.72917746	     -5.45664318
